# 3ds Max Wavefront OBJ Exporter v0.97b - (c)2007 guruware
# File Created: 01.02.2016 19:12:20

#
# object Cylinder001
#

v  8.660251 0.000000 5.000006
v  4.999995 0.000000 8.660257
v  -0.000005 0.000000 10.000000
v  -5.000003 0.000000 8.660252
v  -8.660255 0.000000 4.999998
v  -10.000000 0.000000 -0.000002
v  -8.660254 0.000000 -5.000000
v  -5.000000 0.000000 -8.660254
v  -0.000000 0.000000 -10.000000
v  5.000000 0.000000 -8.660254
v  8.660254 0.000000 -5.000000
v  10.000000 0.000000 -0.000000
v  8.660254 30.000000 -5.000000
v  10.000000 30.000000 -0.000000
v  5.000000 30.000000 -8.660254
v  -0.000000 30.000000 -10.000000
v  -5.000000 30.000000 -8.660254
v  -8.660254 30.000000 -5.000000
v  -10.000000 30.000000 -0.000002
v  -8.660255 30.000000 4.999998
v  -5.000003 30.000000 8.660252
v  -0.000005 30.000000 10.000000
v  4.999995 30.000000 8.660257
v  8.660251 30.000000 5.000006
# 24 vertices

vn 0.000000 -1.000000 -0.000000
vn 1.000000 0.000000 0.000000
vn 0.866025 0.000000 -0.500000
vn 0.500000 0.000000 -0.866025
vn -0.000000 0.000000 -1.000000
vn -0.500000 0.000000 -0.866025
vn -0.866025 0.000000 -0.500000
vn -1.000000 0.000000 -0.000000
vn -0.866026 0.000000 0.500000
vn -0.500000 0.000000 0.866025
vn -0.000001 0.000000 1.000000
vn 0.499999 0.000000 0.866026
vn 0.866025 0.000000 0.500000
vn 0.000000 1.000000 -0.000000
# 14 vertex normals

vt 0.893080 0.184307 0.000000
vt 0.876375 0.201012 0.000000
vt 0.853555 0.207127 0.000000
vt 0.830735 0.201012 0.000000
vt 0.814029 0.184307 0.000000
vt 0.807915 0.161487 0.000000
vt 0.814029 0.138667 0.000000
vt 0.830735 0.121962 0.000000
vt 0.853555 0.115847 0.000000
vt 0.876375 0.121962 0.000000
vt 0.893080 0.138667 0.000000
vt 0.899195 0.161487 0.000000
vt 0.007466 0.051651 0.500000
vt 0.034986 0.051651 0.500000
vt 0.034986 0.959957 0.500000
vt 0.007466 0.959957 0.500000
vt 0.062505 0.051651 0.500000
vt 0.062505 0.959957 0.500000
vt 0.090025 0.051651 0.500000
vt 0.090025 0.959957 0.500000
vt 0.117545 0.051651 0.500000
vt 0.117545 0.959957 0.500000
vt 0.145064 0.051651 0.500000
vt 0.145064 0.959957 0.500000
vt 0.172584 0.051651 0.500000
vt 0.172584 0.959957 0.500000
vt 0.200103 0.051651 0.500000
vt 0.200103 0.959957 0.500000
vt 0.227623 0.051651 0.500000
vt 0.227623 0.959957 0.500000
vt 0.255143 0.051651 0.500000
vt 0.255143 0.959957 0.500000
vt 0.282662 0.051651 0.500000
vt 0.282662 0.959957 0.500000
vt 0.310182 0.051651 0.500000
vt 0.310182 0.959957 0.500000
vt 0.337701 0.051651 0.500000
vt 0.337701 0.959957 0.500000
vt 0.948222 0.469746 0.000000
vt 0.991952 0.632946 0.000000
vt 0.948222 0.796146 0.000000
vt 0.828752 0.915617 0.000000
vt 0.665552 0.959346 0.000000
vt 0.502352 0.915617 0.000000
vt 0.382881 0.796146 0.000000
vt 0.339152 0.632946 0.000000
vt 0.382881 0.469747 0.000000
vt 0.502352 0.350276 0.000000
vt 0.665552 0.306546 0.000000
vt 0.828752 0.350276 0.000000
# 50 texture coords

g Cylinder001
f 1/1/1 2/2/1 3/3/1 4/4/1 5/5/1 6/6/1 7/7/1 8/8/1 9/9/1 10/10/1 11/11/1 12/12/1 
f 12/13/2 11/14/3 13/15/3 14/16/2 
f 11/14/3 10/17/4 15/18/4 13/15/3 
f 10/17/4 9/19/5 16/20/5 15/18/4 
f 9/19/5 8/21/6 17/22/6 16/20/5 
f 8/21/6 7/23/7 18/24/7 17/22/6 
f 7/23/7 6/25/8 19/26/8 18/24/7 
f 6/25/8 5/27/9 20/28/9 19/26/8 
f 5/27/9 4/29/10 21/30/10 20/28/9 
f 4/29/10 3/31/11 22/32/11 21/30/10 
f 3/31/11 2/33/12 23/34/12 22/32/11 
f 2/33/12 1/35/13 24/36/13 23/34/12 
f 1/35/13 12/37/2 14/38/2 24/36/13 
f 24/39/14 14/40/14 13/41/14 15/42/14 16/43/14 17/44/14 18/45/14 19/46/14 20/47/14 21/48/14 22/49/14 23/50/14 
# 14 polygons

